<svg xmlns="http://www.w3.org/2000/svg" viewBox="0 0 634.95 364.09"><defs><style>.cls-1{fill:#f2f5f8;}.cls-2{fill:#cdd2dd;}.cls-3{fill:#e9edf1;}.cls-4{fill:#fff;}.cls-17,.cls-18,.cls-5,.cls-7,.cls-8{fill:none;stroke-miterlimit:10;}.cls-5,.cls-8{stroke:#bac1cf;}.cls-5{stroke-width:1.83px;}.cls-6{fill:#bac1cf;}.cls-7{stroke:#ff4d80;stroke-width:0.91px;}.cls-8{stroke-linecap:round;stroke-width:2.74px;}.cls-9{fill:#8a92a3;}.cls-10{fill:#596377;}.cls-11{fill:#192234;}.cls-12{fill:#454d5e;}.cls-13{fill:#2f3849;}.cls-14{fill:#e43a70;}.cls-15{fill:#a10c50;}.cls-16{fill:#dfe4ea;}.cls-17{stroke:#dfe4ea;stroke-width:3px;}.cls-18{stroke:#cdd2dd;stroke-width:6px;}</style></defs><title>Not Found</title><g id="Background"><path class="cls-1" d="M619.85,298.09c-15.5-31.21-44.47-60-45.07-95-.48-28,17.51-53.09,22.82-80.63,6-31.07-5.81-65-30.52-85.49s-61.54-26.19-91.21-13.46c-49.49,21.24-68.07,81.86-132.38,105.34-24.29,8.88-52.64,9.38-75.38-2.78-21.26-11.37-36.9-33-60.49-38.46-28.1-6.52-55.77,12.64-74.27,34.28-28.72,33.61-46,74.85-67.94,113C52.26,257.77,36.5,280.29,17,298.09Z"/><path class="cls-2" d="M619.31,297.33c56.5,30-69.83,64.54-306.06,64.54S-43.46,327.3,18.12,297.33Z"/><circle class="cls-3" cx="493.05" cy="102.59" r="43.93"/><circle class="cls-4" cx="497.63" cy="98.93" r="43.93"/><line class="cls-5" x1="497.63" y1="98.93" x2="497.63" y2="79.4"/><polygon class="cls-6" points="497.63 73.89 492.24 83.22 503.01 83.22 497.63 73.89"/><line class="cls-5" x1="497.63" y1="98.93" x2="525.9" y2="84.36"/><circle class="cls-2" cx="497.63" cy="98.93" r="4.57"/><circle class="cls-4" cx="497.63" cy="98.93" r="1.78"/><line class="cls-7" x1="504.03" y1="90.44" x2="480.82" y2="121.21"/><path class="cls-4" d="M505.37,88.59s.16,2.6-.38,3.33A1.65,1.65,0,1,1,502.32,90C502.85,89.26,505.37,88.59,505.37,88.59Z"/><line class="cls-8" x1="497.63" y1="61.43" x2="497.63" y2="61.43"/><line class="cls-8" x1="497.63" y1="136.44" x2="497.63" y2="136.44"/><line class="cls-8" x1="478.87" y1="66.45" x2="478.87" y2="66.45"/><line class="cls-8" x1="516.38" y1="131.42" x2="516.38" y2="131.42"/><line class="cls-8" x1="465.14" y1="80.18" x2="465.14" y2="80.18"/><line class="cls-8" x1="530.11" y1="117.69" x2="530.11" y2="117.69"/><line class="cls-8" x1="460.12" y1="98.93" x2="460.12" y2="98.93"/><line class="cls-8" x1="535.13" y1="98.93" x2="535.13" y2="98.93"/><line class="cls-8" x1="465.14" y1="117.69" x2="465.14" y2="117.69"/><line class="cls-8" x1="530.11" y1="80.18" x2="530.11" y2="80.18"/><line class="cls-8" x1="478.87" y1="131.42" x2="478.87" y2="131.42"/><line class="cls-8" x1="516.38" y1="66.45" x2="516.38" y2="66.45"/><path class="cls-9" d="M62.41,342.74H241.68V333H27.3A257.52,257.52,0,0,0,62.41,342.74Z"/><path class="cls-9" d="M471.58,316.4H2.78c2.49,6.42,12.59,12.67,29.66,18.39H507a1.47,1.47,0,0,0,.64-2.79l-28.88-14A16.51,16.51,0,0,0,471.58,316.4Z"/><rect class="cls-9" x="241.84" y="334.05" width="84.73" height="5.93"/></g><g id="Sofa"><path class="cls-9" d="M327.94,167.93H460.47a8.09,8.09,0,0,1,8.09,8.09v72a0,0,0,0,1,0,0H319.85a0,0,0,0,1,0,0V176A8.09,8.09,0,0,1,327.94,167.93Z"/><circle class="cls-10" cx="341.95" cy="197.83" r="1.71"/><circle class="cls-10" cx="368.08" cy="197.83" r="1.71"/><circle class="cls-10" cx="394.2" cy="197.83" r="1.71"/><circle class="cls-10" cx="420.33" cy="197.83" r="1.71"/><circle class="cls-10" cx="446.46" cy="197.83" r="1.71"/><circle class="cls-10" cx="341.95" cy="222.59" r="1.71"/><circle class="cls-10" cx="368.08" cy="222.59" r="1.71"/><circle class="cls-10" cx="394.2" cy="222.59" r="1.71"/><circle class="cls-10" cx="420.33" cy="222.59" r="1.71"/><circle class="cls-10" cx="446.46" cy="222.59" r="1.71"/><path class="cls-9" d="M526,301.16H491.34V204.23L487.08,202l2-.47a19.79,19.79,0,0,1,4.66-.55h29.45a2.87,2.87,0,0,1,2.87,2.87Z"/><rect class="cls-9" x="310.26" y="255.9" width="188.49" height="32.49"/><path class="cls-10" d="M468.56,273.58l22.84,5V204.62a2.86,2.86,0,0,0-3.52-2.79l-19.32,4.53Z"/><polygon class="cls-11" points="171.21 273.63 468.79 273.63 491.4 278.56 148.63 278.56 171.21 273.63"/><polygon class="cls-11" points="446.46 252 468.79 273.63 429.19 276.09 328.94 276.09 320.02 273.63 351.48 256.14 446.46 252"/><path class="cls-10" d="M454.72,298.15l7.52,31.52c0,1.06,1.35,1.92,3,1.92s3-.86,3-1.92l-1.72-31.52Z"/><path class="cls-10" d="M185,298.15l-7.51,31.52c0,1.06-1.36,1.92-3,1.92s-3-.86-3-1.92l1.72-31.52Z"/><polygon class="cls-9" points="508.57 301.16 129.23 301.16 148.37 278.77 491.34 278.77 508.57 301.16"/><path class="cls-9" d="M148.36,301.16H113.68V203.87a2.87,2.87,0,0,1,2.87-2.87h27.79a34.74,34.74,0,0,1,7.94.92h0l-3.92,2.45Z"/><path class="cls-4" d="M171.2,248l-22.84,7.09V204.62a2.87,2.87,0,0,1,3.53-2.79l19.31,4.53Z"/><path class="cls-6" d="M153.51,248H316.86a0,0,0,0,1,0,0v30.82a0,0,0,0,1,0,0H148.36a0,0,0,0,1,0,0V253.1A5.14,5.14,0,0,1,153.51,248Z"/><path class="cls-9" d="M179.29,167.93H311.76a8.09,8.09,0,0,1,8.09,8.09v72a0,0,0,0,1,0,0H171.2a0,0,0,0,1,0,0V176A8.09,8.09,0,0,1,179.29,167.93Z"/><rect class="cls-10" x="470.74" y="240.73" width="4.04" height="4.95"/><path class="cls-2" d="M484.08,222.84a2.6,2.6,0,0,0-.95-3.35c-18.19-11.35-64.29-36.58-114.85-36.58H319.85v30.74h48.43c41.63,0,80.25,17.11,102.74,29.49a2.58,2.58,0,0,0,3.55-1.11Z"/><path class="cls-12" d="M319.85,213.65l.17,60H468.79l4.58-29.18c-22.09-12.44-62-30.8-105.09-30.8Z"/><polygon class="cls-13" points="485.12 220.75 468.79 273.63 473.37 244.45 485.12 220.75"/><path class="cls-13" d="M229.6,136.61A31.65,31.65,0,0,1,238,128.9a.65.65,0,0,1,1,.7l-.87,3.54a.65.65,0,0,0,0,.28.72.72,0,0,0,.26.36,54.44,54.44,0,0,1,7,7.62l4.63-1.92a1.35,1.35,0,0,1,1.17-.11c-1.26,5-4.55,9.23-7.9,13.16-.13.16-.49.23-.45,0"/><path class="cls-10" d="M202.11,157.5c.75-6.21,5.46-14.55,7.45-17,7.26-8.78,30.63-12.72,30.37,2.44a46.11,46.11,0,0,1-4.18,18.38"/><path class="cls-10" d="M207.4,153.73a5.11,5.11,0,0,0-8.75-3.36c-3.67,3.82-.63,13.61,1.61,18.26,2.58,5.38,5.87,3,10,2.37,5.24-.74,10.25,3.28,12.29,8.17,3.49,8.39,0,17.28.87,22.46,2,11.24,18.6,13.14,24.33,3.32,3.19-5.47.41-11.34-1.08-12-.94-.4-2,.61-2.08,1.62a10.07,10.07,0,0,0,.48,3c1.87,10.14-17.73,13.89-15.85-.15.42-3.17,1-7.8,1.27-11,.76-8.15-4-13.81,8.1-17.59,3.3-1,5.13-1.6,6.5-5.73,4.14-12.44-3.8-23.33-12.74-11"/><circle class="cls-10" cx="193.27" cy="197.83" r="1.71"/><circle class="cls-10" cx="219.4" cy="197.83" r="1.71"/><circle class="cls-10" cx="245.53" cy="197.83" r="1.71"/><circle class="cls-10" cx="271.65" cy="197.83" r="1.71"/><circle class="cls-10" cx="297.78" cy="197.83" r="1.71"/><circle class="cls-10" cx="193.27" cy="222.59" r="1.71"/><circle class="cls-10" cx="219.4" cy="222.59" r="1.71"/><circle class="cls-10" cx="245.53" cy="222.59" r="1.71"/><circle class="cls-10" cx="271.65" cy="222.59" r="1.71"/><circle class="cls-10" cx="297.78" cy="222.59" r="1.71"/><path class="cls-13" d="M223.43,201.63a11.12,11.12,0,0,0,5.8,8c-2.34-2.85-3.06-6.73-3-10.42.07-7.24,2.52-14.84-.39-21.46-1-2.38-2.77-4.59-2.81-7.18,0-2,1-4,.67-6-.35-2.33-2.37-4-4.42-5.18s-4.32-2.06-5.91-3.79c-2.7-3-2.65-7.67-1-11.29s4.75-6.43,7.71-9.12a16.38,16.38,0,0,1,2-1.62c-5,1.21-9.88,3.78-12.55,7a43.82,43.82,0,0,0-5,8.83,5,5,0,0,0-5.91,1c-3.67,3.82-.63,13.61,1.61,18.26,2.58,5.38,5.87,3,10,2.37,5.24-.74,10.25,3.28,12.29,8.17C226.05,187.56,222.52,196.45,223.43,201.63Z"/><path class="cls-12" d="M365.05,213.65c9,0,8-4.86,13.17-4.86s-1,4.29,11.07,6.25,4.34,11.65,4.34,11.65Z"/></g><g id="guy"><path class="cls-12" d="M234.73,333.17c18-30-4.71-68.83-18.47-73.53-3-1-4,.11-4.56,2-4.45,15.24,1.57,31.29,3.63,47a4,4,0,0,1-.37,2.91c-1.29,1.74-24.11,9.57-43.61,13.52-9.92,2-10.42-1.24-13.65-2.86-8-4.06-17.28,8.57-26.13,10.25-1.8.35-3.69.34-5.41,1s-3.32,2.19-3.19,4H225C232.81,337.48,234.73,333.17,234.73,333.17Z"/><path class="cls-9" d="M306.73,328.11c0,3.14,7.89-2,12.81,3,.3.31.75.83.43,1.13-2,1.82-7.68,2-10.25,1.52a5.53,5.53,0,0,1-1.66-.51,2.56,2.56,0,0,1-1.19-1.24"/><path class="cls-1" d="M327.38,220.32a73.63,73.63,0,0,0,8-3.55c3.21-1.75,10.77-7.36,18.34-4.81,2.91,1,7.89,4.49,9.77,7.16a24.11,24.11,0,0,1,3.19,7.69,13.73,13.73,0,0,1-4.76,11.53c-4.68,4.07-9.38,3.22-10.73,3.65-2.38.76-3.18,4.46-12.36,1.65-4.35-1.33-4-1.1-12.23.59"/><path class="cls-9" d="M351.29,213.47a25.89,25.89,0,0,0-2.18-2.14c-6,.21-11.23,4.09-14.18,5.65-.53,1.26-.63,2.87-.59,6.71.11,10.68,6.42,6.05,15.83,9.78a3.75,3.75,0,0,1,1.61,1,1.45,1.45,0,0,1,.14,1.76,18.22,18.22,0,0,1-3.57,1.63c-.39.7.52,1.52,1.33,1.46a8.32,8.32,0,0,0,2.23-.89c2.3-.9,6.78.81,7.5-5.62.59-5.19-1.79-10.25-4.62-14.64A36.75,36.75,0,0,0,351.29,213.47Z"/><path class="cls-1" d="M308.89,331.18c14.35-1.89,14.69-1.88,17.62-.67s9.93,5.77,6.24,7.27c-3.14,1.28-9.1-1.68-14.24-2.59a46.31,46.31,0,0,0-9.27-.39"/><path class="cls-1" d="M364.56,195.52c1.9.92,2.87,3.11,4.65,4.24,1.47.93,6.05,1.65,7.88,6.91.44,1.26-.21,1.77,0,2.52a1.24,1.24,0,0,0,1.59.64c2.93-1.14-.57-9.17.89-13.59a2.07,2.07,0,0,0,.2-1c-.11-.69-2.91-3.62-3.62-4-2.16-1.19-7.53-.36-10.92-2.09-1.69-.87-2.59-.44-3.13,2.38"/><path class="cls-1" d="M379.21,194.38c2.59,2.52,4.12,4.24,2.9,7.62-.25.68-2,4.09-2.67,4.12-.34,0-.53-.38-.63-.7-1.28-4-2.25-5.74-.93-9.64"/><path class="cls-14" d="M333.14,190.9s-1.73-6.3-8.25-7.61a55.81,55.81,0,0,0-8.26,20.27c-1.4,7.47-1.28,15.26-3.76,22.44s-8.63,13.94-16.22,13.78c-7.3-.15-13.06-6.44-20.19-8.05-7.84-1.77-15.88,2.46-21.76,8S244.26,252,238.15,257.19c-.43.37-.87.73-1.32,1.1,5.75,3.94,12.73,6.09,19.54,4.95a50.44,50.44,0,0,0,5.5-1.62,15.56,15.56,0,0,1,4.6-1.28l38.28-6.4,0-.25a48.16,48.16,0,0,0,17.41-4.19c9.26-4.18,9.74-8.39,9.71-11.86-.1-15.69,0-26.5-1.14-35,.08-6.12-1.41-5,2.43-11.78Z"/><path class="cls-15" d="M254.7,239.68c5.88-5.49,13.92-9.72,21.76-8,7.13,1.61,12.89,7.9,20.19,8.05,7.59.16,13.75-6.6,16.22-13.78s2.36-15,3.76-22.44a55.81,55.81,0,0,1,8.26-20.27,11.58,11.58,0,0,0-1.75-.23c-.55-.74-1.14-1.48-1.77-2.23l-2.63,1.88c-.66.86-1.34,1.69-2,2.51l-1.24,1.34-.15.2c-11.37,12.33-27.57,19.55-43.47,25.38-17.56,6.45-35.95,12-50.6,23.69l-.37.3c2.6,6.66,6,13,11,18.05a34,34,0,0,0,4.91,4.11c.45-.37.89-.73,1.32-1.1C244.26,252,248.82,245.16,254.7,239.68Z"/><path class="cls-13" d="M223.9,275.5c.31,10.29,15.06,16.16,14.31,26.43-.41,5.69-5.73,10.4-5.26,16.08.24,2.87,2,5.6,1.53,8.45s-3.3,5.12-6.24,5.83c-6.34,1.54-18.5-3.06-39.45,3.47-2.19.68-4.39,1.46-6.61,2v4.95h59.5c4.48.44,8.41-1.82,10.92-5.56s3.17-9.3,3.32-13.84c.19-5.68.16-11.37.29-17q.41-17.22,1.26-34.43c.18-3.51.6-7.47,3.38-9.62a7.18,7.18,0,0,1,1-.63,50.44,50.44,0,0,1-5.5,1.62c-6.81,1.14-13.79-1-19.54-4.95C230.9,263.14,223.68,268,223.9,275.5Z"/><path class="cls-11" d="M220.87,236.13a37.27,37.27,0,0,0-7.4,7.6c-7.38,10.63-5.72,25.13-1.43,37.35,3.5,10,8.53,19.41,11.31,29.65.4,1.51,2.07,6,1,7-.63.6-3.17.67-4.05.86-19.54,4.25-30.48,8.37-38.11,9.94v9.27c2.22-.57,4.42-1.35,6.61-2,21-6.53,33.11-1.93,39.45-3.47,2.94-.71,5.76-2.85,6.24-5.83s-1.29-5.58-1.53-8.45c-.47-5.68,4.85-10.39,5.26-16.08.75-10.27-14-16.14-14.31-26.43-.22-7.48,7-12.36,12.93-17.21a34,34,0,0,1-4.91-4.11C226.92,249.12,223.47,242.79,220.87,236.13Z"/><path class="cls-14" d="M331.63,232.59c-4.22-2.32-13.12-2.11-18.81,6-1.59,2.27-4.07,7.58-6.75,14,3.1-3.6,7.61-4.81,9.35-4.23a4,4,0,0,1,2.4,4.06c-.16,3.69-5.28,10.46-10.14,17.95l.32.26a12.42,12.42,0,0,0,12.05.91,15.39,15.39,0,0,0,3.1-2l.5-.84C331,256.26,332.5,251.25,331.63,232.59Z"/><path class="cls-15" d="M315.42,248.37c-1.74-.58-6.25.63-9.35,4.23-1.11,2.67-2.25,5.54-3.38,8.48a12.44,12.44,0,0,0,5,9.3c4.86-7.49,10-14.26,10.14-17.95A4,4,0,0,0,315.42,248.37Z"/><path class="cls-14" d="M151.9,342.74a11.36,11.36,0,0,0,.72-1.49c.87-2.22.85-4.72,1.81-6.91a2,2,0,0,1,.13-.25c-4.74.35-10.14,2.57-16.76,8.65Z"/><path class="cls-15" d="M156.63,331.81a9.63,9.63,0,0,1,4.1-2.08c.85-.12,1.72,0,2.58-.07a7.16,7.16,0,0,0,5.21-2.88c-2.3-1.51-4.32-3.59-7-4.11-8.06-1.56-15.09,11.07-24,13.19-2.13.51-4.37.49-6.42,1.24s-4,3.47-3.73,5.64H137.8c6.62-6.08,12-8.3,16.76-8.65a5.21,5.21,0,0,1,.66-1.08A7.72,7.72,0,0,1,156.63,331.81Z"/><path class="cls-1" d="M154.56,334.09a2,2,0,0,0-.13.25c-1,2.19-.94,4.69-1.81,6.91a11.36,11.36,0,0,1-.72,1.49h30.28v-4.95a22.36,22.36,0,0,1-6.19.82C168.91,338.39,162.71,333.49,154.56,334.09Z"/><path class="cls-9" d="M169.19,327.2l-.67-.42a7.16,7.16,0,0,1-5.21,2.88c-.86,0-1.73-.05-2.58.07a9.63,9.63,0,0,0-4.1,2.08,7.72,7.72,0,0,0-1.41,1.2,5.21,5.21,0,0,0-.66,1.08c8.15-.6,14.35,4.3,21.43,4.52a22.36,22.36,0,0,0,6.19-.82v-9.27C176.82,329.62,173.1,329.46,169.19,327.2Z"/><path class="cls-3" d="M360.71,186.25c-16.95-10.31-22.22-13.68-26.53-13.75a55.84,55.84,0,0,0-9.28,10.78c6.52,1.3,8.24,7.62,8.24,7.62h0l2-3.46a1.72,1.72,0,0,1,.7-.76,1.7,1.7,0,0,1,1.09,0c25.46,6.38,30,11.81,32.43,9.17C372,192.92,365,188.88,360.71,186.25Z"/><path class="cls-1" d="M376.61,205.74c-1.72-1.32-4.27-.85-4.58-4.5-.14-1.61.28-3.87-1.6-6.26l-.56,0c.75-2.83-5.27-6.33-9.16-8.69-16.95-10.31-22.22-13.68-26.53-13.75a55.84,55.84,0,0,0-9.28,10.78c6.52,1.3,8.24,7.62,8.24,7.62h0l2-3.46a1.72,1.72,0,0,1,.7-.76,1.7,1.7,0,0,1,1.09,0,183.69,183.69,0,0,1,25.31,8.14c3.06,2.36,2.71,6.22,4.45,8.52.91,1.21,7,5.63,10,3.88C377.43,206.84,377.21,206.19,376.61,205.74Z"/><path class="cls-9" d="M370.78,206.33c-4.14-5.5-1.48-10.12-11.33-14.62-3.33-1.52-16.75-6.88-19.48-6.69a5.23,5.23,0,0,0-3.55,1.59,3.06,3.06,0,0,1,.51.1,183.69,183.69,0,0,1,25.31,8.14c3.06,2.36,2.71,6.22,4.45,8.52a15.21,15.21,0,0,0,4.12,3Z"/><path class="cls-16" d="M334.18,172.5h-.54c-3.43.16-7.07,2.28-15.43,11.1a15,15,0,0,1,6.69-.33A55.84,55.84,0,0,1,334.18,172.5Z"/><ellipse class="cls-13" cx="306.51" cy="328.11" rx="1.6" ry="3.01" transform="translate(-65.75 77.06) rotate(-12.95)"/><path class="cls-1" d="M310.56,330.9c-3-.3-3.55-.9-3.89-3.24.17-4.59.43-12.23.91-25.14.44-11.83,2.5-11,15.57-33a15.39,15.39,0,0,1-3.1,2,12.42,12.42,0,0,1-12.05-.91l-.32-.26c-5.12,7.9-10,16.6-8.4,23.38.5,2.15,1.57,4.16,1.87,6.35.46,3.32-.92,6.58-1.53,9.88-1.19,6.45.58,13,2.33,19.37a21.65,21.65,0,0,0,2.66,6.63,13.31,13.31,0,0,0,3.59,3.43c9.94.75,8.06-2.94,14.74-.28,1.18.47,4.71,2.12,6-.38C323.29,335.11,317.25,331.57,310.56,330.9Z"/><path class="cls-16" d="M304.61,336a21.65,21.65,0,0,1-2.66-6.63c-1.75-6.33-3.52-12.92-2.33-19.37.61-3.3,2-6.56,1.53-9.88-.3-2.19-1.37-4.2-1.87-6.35-1.56-6.78,3.28-15.48,8.4-23.38a12.44,12.44,0,0,1-5-9.3c-4.9,12.75-9.52,26.67-9.79,30.63-.56,8,5.49,43,8.11,44.06,1.65,2.85,3.23,3.26,5.9,3.53l1.29.12A13.31,13.31,0,0,1,304.61,336Z"/><path class="cls-13" d="M342.33,212.78c2.89-1.9,8.36-4.83,10.92-5.15,7.54-.95,15.93,11.53,17.22,14,2.38,4.54-.52,12.37-11.21,18.53"/><path class="cls-14" d="M361,221.7l-10.6-5.08,1.09,3.4-4.65,13.73a26,26,0,0,0,4.59,3.09c5.38,2.88,11.34,4.46,17.24,6,2.87.75,4.89.38,5.32-3.86C375,228.88,370,226.06,361,221.7Z"/><path class="cls-13" d="M350.39,216.62l-8.11-3.9c-2.92,5.45-3.34,14.36,4.55,21L351.48,220Z"/><path class="cls-13" d="M361.38,217.74l-19-5,0,0-2,8.46c.23,5.41,3.14,11.36,11.06,15.6a50.42,50.42,0,0,0,7.84,3.3c6.74-3.88,10.38-8.42,11.55-12.39C368.55,225.46,365.61,219.79,361.38,217.74Z"/><path class="cls-10" d="M362.23,215a3.32,3.32,0,0,0,1.73,2.28c.7.35,1.3,0,.77-1.13-.38-.83-2.5-2.21-2.5-1.15"/><path class="cls-15" d="M298.89,330.77a10.26,10.26,0,0,0,8.39-1.1l-.55-3.51a11.31,11.31,0,0,1-8.84.69Z"/></g><g id="Lamp"><path class="cls-9" d="M115.28,319.93c-7.32,3-31.34,5.59-53.17,5.59s-30.92-2.59-21-5.59c9.3-2.79,32-4.92,51.28-4.92S122.11,317.14,115.28,319.93Z"/><rect class="cls-10" x="37.14" y="314.57" width="31.66" height="7.68"/><rect class="cls-10" x="85.72" y="310.73" width="31.66" height="7.68"/><path class="cls-10" d="M115.28,319.93c-7.32,3-31.34,5.59-53.17,5.59s-30.92-2.59-21-5.59c9.3-2.79,32-4.92,51.28-4.92S122.11,317.14,115.28,319.93Z"/><path class="cls-16" d="M115.28,312.29c-7.32,2.72-31.34,5.07-53.17,5.07s-30.92-2.35-21-5.07c9.3-2.54,32-4.48,51.28-4.48S122.11,309.75,115.28,312.29Z"/><path class="cls-9" d="M115.28,312.29c-7.32,2.72-31.34,5.07-53.17,5.07s-30.92-2.35-21-5.07c9.3-2.54,32-4.48,51.28-4.48S122.11,309.75,115.28,312.29Z"/><path class="cls-17" d="M308.64,48.52a140.82,140.82,0,0,0-157-32.75C97.72,38.67,66.17,92.52,66.17,151.5V313"/><line class="cls-18" x1="66.17" y1="151.5" x2="66.17" y2="312.99"/><path class="cls-1" d="M308.64,48.45C321,48.45,331,63.39,331,81.82a47.49,47.49,0,0,1-2.1,14.12h10a33.38,33.38,0,0,0-30.25-47.49Z"/><path class="cls-4" d="M316.49,48.54a3.8,3.8,0,0,0-3.62-2.68h-1.38c1.13,0,2.12,1.09,2.45,2.68l.8,3.86h2.93Z"/><path class="cls-16" d="M311.49,45.86h-7.07a3.8,3.8,0,0,0-3.63,2.68l-1.18,3.86h15.13l-.8-3.86C313.61,47,312.62,45.86,311.49,45.86Z"/><path class="cls-16" d="M308.64,48.45A33.38,33.38,0,0,0,278.4,95.94h50.52A47.49,47.49,0,0,0,331,81.82C331,63.39,321,48.45,308.64,48.45Z"/><path class="cls-16" d="M308.64,48.45A33.38,33.38,0,0,0,278.4,95.94h50.52A47.49,47.49,0,0,0,331,81.82C331,63.39,321,48.45,308.64,48.45Z"/><path class="cls-6" d="M310.13,48.53a14.72,14.72,0,0,0-1.49-.08A33.38,33.38,0,0,0,278.4,95.94h8a38.11,38.11,0,0,1-2.66-14.12C283.7,64.14,295.37,49.68,310.13,48.53Z"/></g></svg>
